<?xml version="1.0" encoding="utf-8"?>
<!-- Generator: Adobe Illustrator 24.1.1, SVG Export Plug-In . SVG Version: 6.00 Build 0)  -->
<svg version="1.1" id="Layer_1" xmlns="http://www.w3.org/2000/svg" xmlns:xlink="http://www.w3.org/1999/xlink" x="0px" y="0px"
	 viewBox="0 0 262.5 372.6" style="enable-background:new 0 0 262.5 372.6;" xml:space="preserve">
<style type="text/css">
	.st0{fill:none;}
	.st1{fill:#FFFFFF;}
</style>
<polygon class="st0" points="131.8,185.5 149.1,152.6 114.5,152.6 "/>
<path class="st0" d="M192.7,59.2c-24.6,0-44.6,19.9-44.6,44.6s19.9,44.6,44.6,44.6s44.6-19.9,44.6-44.6v0l0,0
	C237.3,79.2,217.3,59.3,192.7,59.2z M192.7,121.1c-10.3,0-18.6-8.4-18.6-18.6s8.4-18.6,18.6-18.6c10.3,0,18.6,8.3,18.6,18.6
	C211.4,112.8,203,121.1,192.7,121.1C192.7,121.1,192.7,121.1,192.7,121.1L192.7,121.1z"/>
<path class="st0" d="M116.5,103.8c0-24.6-20-44.6-44.6-44.6c-24.6,0-44.6,20-44.6,44.6s20,44.6,44.6,44.6c0,0,0,0,0,0
	C96.6,148.4,116.5,128.4,116.5,103.8z M72.1,122.2c-10.9,0-19.7-8.8-19.7-19.7s8.8-19.7,19.7-19.7s19.7,8.8,19.7,19.7
	S82.9,122.2,72.1,122.2L72.1,122.2z"/>
<polygon class="st0" points="131.8,185.5 149.1,152.6 114.5,152.6 "/>
<path class="st0" d="M116.5,103.8c0-24.6-20-44.6-44.6-44.6c-24.6,0-44.6,20-44.6,44.6s20,44.6,44.6,44.6c0,0,0,0,0,0
	C96.6,148.4,116.5,128.4,116.5,103.8z M72.1,122.2c-10.9,0-19.7-8.8-19.7-19.7s8.8-19.7,19.7-19.7s19.7,8.8,19.7,19.7
	S82.9,122.2,72.1,122.2L72.1,122.2z"/>
<path class="st0" d="M192.7,59.2c-24.6,0-44.6,19.9-44.6,44.6s19.9,44.6,44.6,44.6s44.6-19.9,44.6-44.6v0l0,0
	C237.3,79.2,217.3,59.3,192.7,59.2z M192.7,121.1c-10.3,0-18.6-8.4-18.6-18.6s8.4-18.6,18.6-18.6c10.3,0,18.6,8.3,18.6,18.6
	C211.4,112.8,203,121.1,192.7,121.1C192.7,121.1,192.7,121.1,192.7,121.1L192.7,121.1z"/>
<path class="st1" d="M72.1,81.5c-12.3,0-22.3,10-22.4,22.3s10,22.3,22.3,22.4c12.3,0,22.3-10,22.4-22.3l0,0
	C94.4,91.5,84.4,81.5,72.1,81.5z"/>
<path class="st1" d="M209.7,30.9H53.6L0,0v347.8c0,13.7,11.1,24.9,24.9,24.9h212.7c13.7,0,24.9-11.1,24.9-24.9V0.5L209.7,30.9z
	 M72,148.4c-24.6,0-44.6-20-44.6-44.6s20-44.6,44.6-44.6c24.6,0,44.6,20,44.6,44.6l0,0C116.6,128.4,96.7,148.4,72,148.4
	C72,148.4,72,148.4,72,148.4z M131.9,185.5l-17.3-32.9h34.6L131.9,185.5z M237.3,103.8c0,24.6-20,44.6-44.6,44.6s-44.6-20-44.6-44.6
	c0-24.6,20-44.6,44.6-44.6C217.4,59.2,237.3,79.2,237.3,103.8C237.3,103.8,237.3,103.8,237.3,103.8z"/>
<path class="st1" d="M192.8,80.1c-12.3,0-22.3,10-22.4,22.3s10,22.3,22.3,22.4c12.3,0,22.3-10,22.4-22.3l0,0
	C215.1,90.2,205.1,80.2,192.8,80.1z"/>
</svg>
