<svg id="Layer_1" data-name="Layer 1" xmlns="http://www.w3.org/2000/svg" viewBox="0 0 262.48 372.63"><circle cx="71.97" cy="103.82" r="44.58" style="fill:#fff"/><circle cx="192.7" cy="103.82" r="44.58" style="fill:#fff"/><polygon points="131.82 185.47 149.12 152.58 114.52 152.58 131.82 185.47" style="fill:none"/><path d="M193.22,60a44.58,44.58,0,1,0,44.57,44.59v0A44.62,44.62,0,0,0,193.22,60Zm0,61.88a18.63,18.63,0,1,1,18.64-18.63A18.63,18.63,0,0,1,193.2,121.89Z" transform="translate(-0.51 -0.77)" style="fill:none"/><path d="M117.05,104.58a44.58,44.58,0,1,0-44.58,44.59,44.62,44.62,0,0,0,44.58-44.59ZM72.57,122.94a19.68,19.68,0,1,1,19.68-19.68A19.69,19.69,0,0,1,72.57,122.94Z" transform="translate(-0.51 -0.77)" style="fill:none"/><polygon points="131.82 185.47 149.12 152.58 114.52 152.58 131.82 185.47" style="fill:none"/><path d="M117.05,104.58a44.58,44.58,0,1,0-44.58,44.59,44.62,44.62,0,0,0,44.58-44.59ZM72.57,122.94a19.68,19.68,0,1,1,19.68-19.68A19.69,19.69,0,0,1,72.57,122.94Z" transform="translate(-0.51 -0.77)" style="fill:none"/><path d="M193.22,60a44.58,44.58,0,1,0,44.57,44.59v0A44.62,44.62,0,0,0,193.22,60Zm0,61.88a18.63,18.63,0,1,1,18.64-18.63A18.63,18.63,0,0,1,193.2,121.89Z" transform="translate(-0.51 -0.77)" style="fill:none"/><path d="M72.59,83.58a19.68,19.68,0,1,0,19.66,19.68A19.69,19.69,0,0,0,72.59,83.58Z" transform="translate(-0.51 -0.77)" style="fill:#098dd2"/><path d="M210.23,31.7H54.09L.51.77V348.53A24.9,24.9,0,0,0,25.38,373.4H238.11A24.9,24.9,0,0,0,263,348.53V1.24ZM72.47,149.17a44.58,44.58,0,1,1,44.58-44.59v0A44.57,44.57,0,0,1,72.47,149.17Zm59.85,37.07L115,153.35h34.61ZM237.79,104.6A44.58,44.58,0,1,1,193.22,60a44.59,44.59,0,0,1,44.57,44.59Z" transform="translate(-0.51 -0.77)" style="fill:#098dd2"/><path d="M193.2,84.63a18.63,18.63,0,1,0,18.64,18.63A18.63,18.63,0,0,0,193.2,84.63Z" transform="translate(-0.51 -0.77)" style="fill:#098dd2"/><polygon points="131.85 185.47 149.12 152.77 114.58 152.77 131.85 185.47" style="fill:#fff"/></svg>